<?xml version="1.0" standalone="no"?>
<!DOCTYPE svg PUBLIC "-//W3C//DTD SVG 20010904//EN"
 "http://www.w3.org/TR/2001/REC-SVG-20010904/DTD/svg10.dtd">
<svg version="1.0" xmlns="http://www.w3.org/2000/svg"
 width="1200.000000pt" height="1200.000000pt" viewBox="0 0 1200.000000 1200.000000"
 preserveAspectRatio="xMidYMid meet">
<metadata>
Created by potrace 1.11, written by Peter Selinger 2001-2013
</metadata>
<g transform="translate(0.000000,1200.000000) scale(0.100000,-0.100000)"
fill="#000000" stroke="none">
<path d="M0 9059 c0 -2781 1 -2941 17 -2935 10 4 101 29 203 56 398 105 664
176 1420 380 432 116 817 220 855 230 39 11 665 178 1393 372 l1323 353 35 63
c19 34 46 74 59 88 14 15 22 30 20 34 -3 4 2 11 11 14 8 3 13 10 9 16 -3 5 13
42 36 82 23 40 53 93 66 118 82 147 168 290 176 290 5 0 4 -6 -2 -13 -6 -8 -8
-17 -4 -21 4 -3 -1 -12 -10 -19 -9 -6 -18 -24 -20 -39 -1 -15 -6 -30 -10 -34
-4 -4 -7 -16 -7 -26 0 -10 -4 -18 -10 -18 -5 0 -19 -21 -31 -47 -12 -27 -24
-50 -28 -53 -3 -3 -6 -11 -7 -17 -1 -7 -2 -20 -2 -29 -1 -10 -8 -14 -16 -11
-10 4 -18 -4 -25 -24 -5 -16 -14 -29 -19 -29 -5 0 -12 -14 -16 -30 -3 -17 -17
-43 -31 -58 -14 -15 -25 -31 -25 -37 0 -5 -9 -21 -20 -35 -13 -18 -16 -28 -8
-37 6 -8 7 -13 1 -13 -6 0 -24 -23 -42 -51 l-31 -51 27 6 c56 12 227 35 231
32 2 -2 -10 -7 -27 -11 -29 -6 -71 -50 -71 -75 0 -6 -6 -18 -14 -26 -8 -7 -16
-18 -18 -24 -4 -13 -21 -14 -129 -5 -61 6 -88 4 -93 -4 -4 -6 -3 -11 2 -11 5
0 7 -11 4 -25 -2 -14 -9 -25 -14 -25 -6 0 -8 -7 -4 -15 3 -8 1 -15 -4 -15 -6
0 -10 -6 -10 -13 0 -8 -11 -27 -25 -43 -14 -16 -25 -37 -25 -46 0 -9 -7 -21
-16 -26 -8 -5 -16 -15 -18 -23 -5 -31 -18 -59 -27 -59 -5 0 -9 -6 -9 -13 0 -7
-9 -23 -20 -35 -11 -12 -20 -26 -20 -33 0 -6 -8 -23 -18 -37 -10 -15 -31 -55
-47 -89 -16 -35 -33 -63 -37 -63 -4 0 -5 -6 -3 -13 7 -16 -65 -137 -81 -137
-7 0 -10 -8 -7 -20 3 -11 1 -20 -5 -20 -6 0 -14 -9 -17 -20 -3 -11 -13 -27
-21 -35 -8 -8 -17 -24 -19 -35 -2 -11 -15 -32 -30 -47 -14 -16 -32 -35 -40
-44 -8 -9 -15 -22 -15 -31 0 -8 -9 -23 -20 -33 -21 -19 -28 -41 -8 -29 7 4 8
3 4 -4 -4 -7 -12 -12 -17 -12 -14 0 -43 -30 -36 -37 3 -3 -1 -12 -9 -20 -8 -9
-18 -28 -21 -44 -3 -16 -9 -26 -14 -23 -5 3 -9 -2 -9 -10 0 -9 -4 -16 -9 -16
-5 0 -7 -9 -4 -19 3 -13 -2 -21 -16 -26 -11 -3 -18 -12 -15 -19 3 -7 -2 -13
-11 -13 -19 0 -12 29 17 70 27 38 138 238 138 248 0 4 8 13 18 18 9 6 13 11 9
11 -9 0 24 60 33 60 4 0 7 6 7 13 0 12 42 92 119 226 11 20 50 88 86 151 127
224 140 245 149 248 5 2 7 7 5 10 -2 4 27 61 64 127 38 66 64 121 60 123 -5 2
-68 -13 -142 -33 -73 -20 -293 -79 -488 -131 -772 -207 -1549 -418 -2670 -724
-426 -117 -813 -222 -860 -235 -47 -12 -263 -71 -480 -130 -217 -59 -423 -114
-457 -122 l-63 -15 0 -3029 0 -3029 6000 0 6000 0 0 6000 0 6000 -6000 0
-6000 0 0 -2941z m6087 -96 c12 -21 39 -72 61 -113 46 -88 72 -133 141 -253
28 -49 51 -91 51 -94 0 -2 17 -35 39 -71 44 -77 37 -64 206 -362 70 -124 132
-231 139 -239 6 -8 43 -68 81 -135 l70 -121 45 -7 c46 -6 155 -27 525 -97 116
-22 417 -79 670 -127 253 -47 463 -91 466 -96 4 -6 12 -8 18 -4 6 4 216 -32
468 -79 582 -110 677 -128 903 -170 102 -19 343 -64 535 -100 193 -37 409 -77
480 -90 72 -13 216 -40 320 -59 105 -20 237 -45 295 -56 58 -11 169 -32 248
-46 l142 -27 0 -103 c0 -97 -1 -102 -20 -97 -11 3 -27 0 -36 -8 -12 -10 -15
-10 -12 1 2 8 -12 17 -35 23 -30 7 -42 6 -56 -7 -10 -9 -22 -16 -28 -16 -6 0
-13 -6 -16 -14 -4 -11 -1 -11 19 -2 13 6 24 15 24 19 0 4 9 3 20 -3 16 -9 19
-8 13 6 -4 12 -2 15 8 12 30 -10 13 -33 -31 -41 -41 -8 -43 -10 -26 -23 17
-12 18 -17 8 -39 -7 -15 -8 -24 -2 -20 5 3 10 1 10 -5 0 -6 3 -9 8 -7 4 3 7
-6 7 -19 0 -13 -1 -24 -2 -24 -13 0 -32 14 -27 21 7 12 -10 11 -22 -1 -7 -7
-24 -6 -53 5 -23 8 -45 14 -49 13 -15 -4 -92 14 -92 21 0 4 -15 8 -32 8 -18 1
-64 8 -103 18 -38 9 -79 18 -90 20 -11 2 -60 12 -108 23 -48 10 -90 16 -92 12
-6 -9 132 -46 183 -49 7 -1 10 -6 7 -11 -4 -6 -11 -7 -17 -4 -7 4 -8 2 -4 -4
10 -17 -10 -15 -27 2 -12 13 -18 13 -41 1 -15 -8 -24 -10 -21 -5 4 6 1 10 -5
10 -7 0 -10 -7 -7 -15 4 -8 2 -17 -3 -20 -4 -3 -11 1 -13 7 -3 7 -6 3 -6 -8
-1 -14 6 -24 19 -27 10 -3 19 -2 18 2 -2 17 3 31 11 31 5 0 7 -10 4 -22 -4
-19 -3 -20 6 -8 6 8 11 23 11 33 0 9 2 17 4 17 13 0 36 -13 36 -21 0 -4 -7 -6
-15 -3 -24 10 -19 -43 5 -56 11 -6 20 -8 20 -5 0 3 9 1 19 -4 14 -8 22 -7 32
6 11 13 11 17 1 20 -6 3 -9 10 -5 15 4 7 -2 9 -15 6 -31 -9 -38 10 -11 33 22
19 45 26 35 10 -3 -5 15 -6 41 -3 36 4 44 2 38 -8 -5 -9 -4 -11 4 -6 6 4 21 4
34 0 l22 -8 -24 -6 c-26 -6 -41 -30 -19 -30 8 0 13 -14 14 -40 0 -22 -1 -40
-3 -40 -20 0 -93 24 -93 31 0 12 18 20 22 9 2 -6 8 -6 18 0 13 8 12 10 -2 10
-10 0 -18 7 -18 15 0 9 6 12 15 9 10 -4 15 0 15 11 0 11 -5 15 -15 11 -18 -7
-20 5 -3 22 13 13 1 16 -26 6 -18 -7 -21 -35 -7 -50 6 -5 4 -16 -4 -27 -12
-17 -18 -18 -69 -6 -30 6 -53 16 -50 20 3 5 -1 6 -9 3 -13 -5 -67 7 -334 72
-60 15 -117 28 -128 29 -55 9 -320 80 -323 87 -2 4 -7 6 -12 3 -4 -2 -47 4
-96 15 -49 12 -118 27 -154 35 -36 8 -81 19 -100 25 -19 6 -120 31 -225 56
-104 25 -246 59 -315 76 -69 16 -152 36 -185 43 -65 15 -220 52 -245 59 -27 7
-633 152 -760 181 -30 7 -109 27 -175 43 -66 17 -133 34 -150 38 -21 5 -25 8
-12 11 9 3 15 9 12 14 -9 13 9 11 25 -3 12 -11 12 -10 1 5 -12 15 -11 17 5 17
16 0 17 2 4 10 -20 13 -7 12 60 -4 35 -8 55 -18 55 -27 0 -7 9 -15 20 -17 11
-2 25 -11 32 -19 10 -13 12 -12 10 6 -1 15 -8 21 -24 21 -13 0 -23 5 -23 11 0
11 35 8 73 -6 9 -4 17 -3 17 3 0 6 -26 16 -57 23 -32 6 -76 16 -98 22 -22 6
-43 11 -47 13 -5 1 -11 3 -15 4 -5 2 -12 4 -18 5 -66 11 -115 21 -197 41 -112
28 -108 27 -108 14 0 -5 6 -10 14 -10 8 0 18 -4 21 -10 3 -6 -1 -7 -9 -4 -11
4 -16 0 -16 -10 0 -9 5 -16 11 -16 7 0 17 -7 24 -17 10 -14 12 -11 10 16 -2
28 1 32 19 27 12 -2 56 -13 99 -22 54 -13 73 -21 60 -25 -11 -5 -3 -7 21 -6
27 1 40 -3 43 -13 4 -13 3 -13 -6 0 -6 9 -11 10 -11 3 0 -18 -29 -43 -51 -43
-11 0 -18 4 -15 9 3 4 -5 6 -19 4 -13 -3 -56 4 -97 15 -40 12 -123 33 -184 48
-73 17 -111 31 -111 40 0 14 23 14 44 1 6 -4 14 -3 17 2 7 10 -47 40 -73 42
-9 0 -11 3 -5 5 6 3 30 1 53 -5 22 -5 41 -5 41 -1 0 8 -28 19 -65 25 -11 2
-76 15 -144 29 -122 26 -176 30 -86 7 26 -7 49 -19 52 -29 8 -21 32 -46 39
-40 2 3 -2 11 -11 18 -19 16 -19 30 0 30 8 0 15 -4 15 -8 0 -5 7 -17 16 -28
15 -18 15 -18 9 4 -5 18 -2 22 15 22 12 0 19 -4 16 -9 -4 -5 3 -7 14 -4 23 6
27 -12 5 -21 -8 -3 -15 -10 -15 -16 0 -6 5 -8 10 -5 6 3 10 1 10 -4 0 -15 -13
-14 -95 5 -38 8 -80 18 -92 20 -13 2 -23 11 -23 19 0 7 -5 17 -12 21 -8 5 -9
2 -5 -9 8 -21 9 -21 -83 -1 -154 34 -152 33 -136 49 8 8 16 20 18 27 4 11 37
7 143 -18 19 -5 19 -4 2 9 -16 13 -68 26 -131 32 -11 1 -22 7 -24 14 -2 6 -8
9 -13 5 -5 -3 -12 2 -15 11 -6 13 -8 14 -15 3 -6 -9 -9 -10 -9 -1 0 7 -6 10
-13 7 -8 -3 -18 6 -25 21 -15 32 -15 38 -2 30 6 -3 10 1 10 11 0 13 -3 14 -14
5 -9 -7 -17 -8 -20 -3 -9 14 37 23 86 17 l43 -5 -45 13 c-25 8 -65 17 -89 21
-35 5 -42 4 -34 -6 18 -22 113 -200 113 -212 0 -6 16 -37 35 -69 19 -32 37
-72 40 -90 4 -17 12 -38 19 -47 17 -20 423 -744 438 -782 4 -10 4 -18 -1 -18
-12 0 -50 47 -44 54 4 3 1 6 -5 6 -6 0 -14 16 -18 36 -4 19 -13 38 -20 41 -8
3 -12 9 -9 13 3 4 -2 13 -10 20 -8 7 -15 18 -15 24 0 7 -12 22 -26 35 -14 12
-23 27 -21 34 2 7 -6 21 -19 32 -27 24 -87 133 -79 145 3 4 -5 6 -17 2 -21 -5
-22 -4 -9 11 9 11 10 17 2 17 -6 0 -11 7 -11 16 0 9 -13 32 -30 51 -16 18 -30
44 -30 56 0 22 -49 129 -62 135 -5 2 -8 12 -8 23 0 11 -7 19 -16 19 -11 0 -13
6 -9 19 3 11 -1 25 -9 34 -11 10 -12 17 -3 26 8 8 2 14 -21 22 -35 12 -38 19
-20 37 9 9 7 12 -11 12 -18 0 -21 4 -16 20 5 14 2 20 -9 20 -9 0 -17 6 -18 13
-4 39 -18 68 -28 62 -4 -3 -11 7 -14 20 -4 15 -11 23 -17 19 -7 -4 -9 3 -7 17
2 14 -5 32 -16 43 -14 14 -15 20 -6 26 10 6 8 11 -8 21 -11 7 -18 19 -14 27 3
10 1 13 -6 8 -6 -3 -13 3 -17 14 -4 11 -11 18 -16 15 -5 -4 -9 1 -9 9 0 10 -6
13 -15 10 -9 -4 -15 0 -15 10 0 9 5 16 10 16 6 0 10 5 10 10 0 6 -7 10 -16 10
-11 0 -15 6 -11 20 3 10 2 19 -2 18 -18 -2 -30 4 -35 18 -6 15 -4 15 10 3 16
-13 16 -12 3 11 -12 23 -14 28 -18 48 -1 4 -5 1 -10 -7 -6 -10 -12 -4 -22 23
-7 20 -18 36 -24 36 -5 0 -19 20 -30 45 -11 25 -25 45 -32 45 -13 0 -38 46
-35 63 1 4 -3 7 -8 7 -6 0 -10 7 -10 15 0 8 -4 15 -8 15 -4 0 -21 25 -36 55
-16 30 -32 52 -36 50 -3 -2 -12 13 -20 33 -7 20 -17 40 -23 44 -6 3 -12 12
-13 20 -1 7 -6 24 -12 38 -5 14 -10 29 -10 34 0 5 -4 12 -9 15 -4 3 -13 15
-20 26 -73 123 -93 160 -93 170 0 7 -7 18 -15 25 -8 7 -15 21 -15 31 0 11 -4
19 -9 19 -11 0 -24 38 -21 63 1 9 -2 17 -7 17 -4 0 -26 38 -48 85 -22 47 -46
85 -53 85 -7 0 -15 13 -18 30 -4 18 -15 32 -28 36 -11 4 -28 15 -37 25 -12 14
-19 15 -27 7 -9 -9 -12 -8 -12 5 0 14 -4 16 -19 7 -13 -6 -22 -7 -26 0 -11 19
-85 -56 -78 -79 4 -13 3 -13 -5 -2 -10 14 -5 26 99 219 12 23 26 42 29 42 3 0
16 -17 27 -37z m-177 -253 c0 -5 -5 -10 -11 -10 -5 0 -7 5 -4 10 3 6 8 10 11
10 2 0 4 -4 4 -10z m-46 -70 c-10 -16 -20 -28 -22 -26 -4 5 28 56 35 56 2 0
-4 -13 -13 -30z m-103 -198 c-5 -10 -19 -26 -30 -36 -21 -19 -21 -18 1 22 13
22 26 38 30 36 5 -3 4 -13 -1 -22z m-70 -105 c-10 -9 -11 -8 -5 6 3 10 9 15
12 12 3 -3 0 -11 -7 -18z m-10 -44 c12 -15 12 -16 -3 -10 -12 4 -15 2 -12 -7
3 -8 0 -17 -5 -21 -6 -3 -9 -10 -7 -14 3 -4 -4 -8 -15 -8 -18 -2 -18 0 4 38
12 21 23 39 23 39 1 0 8 -8 15 -17z m-229 -805 c-6 -6 -15 -8 -19 -4 -4 4 -1
11 7 16 19 12 27 3 12 -12z m4296 -295 c-10 -2 -26 -2 -35 0 -10 3 -2 5 17 5
19 0 27 -2 18 -5z m-2148 -27 c0 -2 -9 -6 -20 -9 -11 -3 -18 -1 -14 4 5 9 34
13 34 5z m3627 -232 c-3 -3 -12 -4 -19 -1 -8 3 -5 6 6 6 11 1 17 -2 13 -5z
m480 -80 c-3 -3 -12 -4 -19 -1 -8 3 -5 6 6 6 11 1 17 -2 13 -5z m268 -491
c-16 -16 -16 -17 1 -30 19 -14 14 -25 -12 -29 -10 -2 -14 3 -10 11 3 8 -3 22
-12 32 -16 15 -16 16 0 11 10 -4 19 -1 22 8 3 8 10 14 16 14 6 0 4 -8 -5 -17z
m-79 -8 c15 -11 16 -14 4 -15 -9 0 -21 5 -28 12 -6 6 -14 9 -17 6 -3 -3 2 -13
11 -22 9 -9 14 -20 11 -23 -10 -10 -39 27 -33 42 7 19 27 19 52 0z m39 -25 c3
-5 -1 -10 -10 -10 -9 0 -13 5 -10 10 3 6 8 10 10 10 2 0 7 -4 10 -10z m-331
-49 c2 -3 -10 -6 -27 -6 -17 0 -32 5 -34 11 -4 11 54 7 61 -5z m286 8 c0 -5
-4 -7 -10 -4 -5 3 -10 1 -10 -6 0 -7 -3 -10 -6 -6 -8 7 4 27 17 27 5 0 9 -5 9
-11z m50 0 c0 -6 -7 -9 -14 -6 -10 4 -13 1 -9 -9 3 -7 0 -14 -6 -14 -12 0 -15
23 -4 33 10 11 33 8 33 -4z m-415 -17 c6 -4 12 -20 13 -36 2 -24 0 -26 -12
-16 -8 6 -12 18 -9 27 3 8 0 19 -8 24 -8 5 -9 9 -4 9 6 0 15 -4 20 -8z m115
-1 c0 -6 -4 -13 -10 -16 -5 -3 -10 1 -10 9 0 9 5 16 10 16 6 0 10 -4 10 -9z
m34 -17 c3 -8 2 -12 -4 -9 -6 3 -10 10 -10 16 0 14 7 11 14 -7z m42 1 c17 -16
14 -18 -10 -9 -9 3 -16 10 -16 15 0 13 9 11 26 -6z m267 -28 c-3 -5 -11 0 -19
10 -20 27 -17 39 5 17 10 -10 16 -23 14 -27z m-38 12 c6 -6 -4 -7 -25 -3 -19
4 -39 11 -45 16 -7 7 2 8 25 3 19 -4 39 -11 45 -16z m-344 -17 c-13 -24 -43
-38 -34 -16 3 7 0 14 -6 14 -6 0 -11 5 -11 11 0 5 4 7 10 4 5 -3 18 -2 27 4
23 12 27 7 14 -17z m40 -24 c-14 -6 -14 -7 2 -7 9 -1 17 -6 17 -12 0 -7 -9 -9
-22 -6 -12 4 -27 3 -32 -2 -6 -4 -24 -4 -41 0 -22 5 -24 7 -8 8 33 2 53 12 53
26 0 18 22 24 36 11 9 -8 8 -13 -5 -18z m64 12 c3 -5 1 -10 -4 -10 -6 0 -11 5
-11 10 0 6 2 10 4 10 3 0 8 -4 11 -10z m-4018 -110 c60 -109 168 -293 206
-348 16 -24 27 -46 24 -48 -2 -3 -43 -1 -90 3 -87 8 -104 21 -47 37 18 5 21 5
10 -3 -8 -5 -12 -13 -9 -16 4 -3 12 1 18 9 10 12 8 19 -9 36 -25 25 -19 40 7
19 16 -13 17 -12 5 2 -7 10 -10 30 -7 48 4 23 1 31 -9 31 -8 0 -17 7 -20 16
-5 14 -4 15 8 5 12 -10 14 -9 9 8 -3 11 -10 19 -17 18 -6 -1 -11 5 -11 14 0 8
-8 27 -18 42 -9 14 -17 31 -17 37 0 8 -45 75 -81 118 -7 8 -6 12 1 12 6 0 2
12 -9 26 -11 15 -18 31 -15 36 8 12 11 7 71 -102z m4014 32 c-13 -2 -27 0 -32
5 -6 6 3 7 23 4 28 -4 29 -6 9 -9z m104 -12 c3 -5 1 -10 -4 -10 -6 0 -11 5
-11 10 0 6 2 10 4 10 3 0 8 -4 11 -10z m-7481 -194 c-9 -15 -19 -25 -21 -22
-5 5 30 56 35 51 2 -2 -4 -15 -14 -29z m-28 -108 c5 -8 1 -9 -12 -5 -18 7 -18
7 0 -8 16 -12 22 -12 28 -2 5 8 8 7 8 -5 0 -11 8 -18 19 -18 11 0 26 -6 33
-12 7 -7 18 -13 23 -13 6 0 41 -6 78 -13 53 -10 72 -10 83 -1 11 9 14 9 14 0
0 -7 5 -9 12 -5 9 6 209 15 303 14 100 -1 126 -3 130 -11 4 -5 19 -9 36 -9 16
0 29 -4 29 -10 0 -7 -157 -10 -451 -10 l-450 0 18 30 c23 40 69 90 82 90 5 0
13 -5 17 -12z m840 -100 c4 -5 -4 -8 -17 -6 -12 1 -24 8 -26 15 -5 14 34 6 43
-9z m69 1 c-8 -11 -55 -12 -55 -1 0 5 14 9 30 10 17 0 28 -4 25 -9z m65 7 c0
-2 -7 -6 -15 -10 -8 -3 -15 -1 -15 4 0 6 7 10 15 10 8 0 15 -2 15 -4z m120 -6
c0 -5 -16 -9 -35 -7 -45 3 -45 17 0 17 19 0 35 -4 35 -10z m155 -2 c3 -3 -23
-6 -57 -7 -35 0 -58 2 -51 7 13 8 99 9 108 0z m265 2 c12 -8 9 -10 -13 -10
-16 0 -26 4 -22 10 8 12 16 12 35 0z m65 0 c3 -5 1 -10 -4 -10 -6 0 -11 5 -11
10 0 6 2 10 4 10 3 0 8 -4 11 -10z m61 -3 c4 -4 -5 -7 -20 -7 -15 0 -25 4 -22
9 7 10 31 9 42 -2z m404 -3 c0 -2 -12 -4 -26 -4 -14 0 -23 4 -20 9 6 8 46 4
46 -5z m180 0 c0 -2 -9 -4 -20 -4 -11 0 -20 4 -20 9 0 5 9 7 20 4 11 -3 20 -7
20 -9z m459 0 c2 -2 -72 -4 -165 -3 -93 0 -161 4 -151 8 20 7 308 3 316 -5z
m120 0 c2 -2 -22 -4 -55 -4 -40 0 -54 3 -44 10 13 8 89 4 99 -6z m81 0 c0 -2
-17 -4 -37 -3 -33 1 -35 2 -13 8 23 7 50 4 50 -5z m550 6 c0 -5 -5 -10 -11
-10 -5 0 -7 5 -4 10 3 6 8 10 11 10 2 0 4 -4 4 -10z m-2073 -6 c-3 -3 -12 -4
-19 -1 -8 3 -5 6 6 6 11 1 17 -2 13 -5z m381 -1 c-10 -2 -28 -2 -40 0 -13 2
-5 4 17 4 22 1 32 -1 23 -4z m409 1 c-3 -3 -12 -4 -19 -1 -8 3 -5 6 6 6 11 1
17 -2 13 -5z m181 -1 c-10 -2 -26 -2 -35 0 -10 3 -2 5 17 5 19 0 27 -2 18 -5z
m619 1 c-3 -3 -12 -4 -19 -1 -8 3 -5 6 6 6 11 1 17 -2 13 -5z"/>
<path d="M7470 7340 c14 -4 32 -8 40 -9 13 -1 13 0 0 9 -8 5 -26 9 -40 9 l-25
-1 25 -8z"/>
<path d="M7558 7323 c7 -3 16 -2 19 1 4 3 -2 6 -13 5 -11 0 -14 -3 -6 -6z"/>
<path d="M7663 7303 c9 -2 23 -2 30 0 6 3 -1 5 -18 5 -16 0 -22 -2 -12 -5z"/>
<path d="M7717 7284 c4 -10 8 -13 10 -7 3 8 14 8 34 3 17 -5 29 -5 29 1 0 5
-8 9 -17 9 -10 0 -28 3 -41 6 -18 5 -21 3 -15 -12z"/>
<path d="M7145 7270 c3 -6 -1 -10 -9 -10 -8 0 -18 -5 -22 -12 -5 -7 -1 -9 13
-6 11 3 28 1 37 -4 10 -6 16 -5 16 2 0 5 -5 10 -11 10 -5 0 -8 4 -5 9 3 5 -1
12 -10 15 -8 3 -12 2 -9 -4z"/>
<path d="M7804 7271 c4 -6 18 -11 31 -11 13 0 35 -4 49 -10 14 -5 26 -6 26 -1
0 5 -13 11 -29 14 -16 3 -41 9 -56 13 -20 5 -26 4 -21 -5z"/>
<path d="M7298 7263 c7 -3 16 -2 19 1 4 3 -2 6 -13 5 -11 0 -14 -3 -6 -6z"/>
<path d="M7230 7251 c0 -5 9 -11 21 -14 16 -4 18 -3 8 9 -13 16 -29 19 -29 5z"/>
<path d="M7845 7240 c3 -5 11 -10 16 -10 6 0 7 5 4 10 -3 6 -11 10 -16 10 -6
0 -7 -4 -4 -10z"/>
<path d="M7995 7230 c11 -5 29 -8 40 -8 16 0 15 2 -5 8 -34 11 -60 11 -35 0z"/>
<path d="M8090 7210 c34 -11 60 -11 35 0 -11 5 -29 8 -40 8 -16 0 -15 -2 5 -8z"/>
<path d="M7350 7200 c0 -5 5 -10 11 -10 5 0 7 5 4 10 -3 6 -8 10 -11 10 -2 0
-4 -4 -4 -10z"/>
<path d="M7395 7190 c3 -5 8 -10 11 -10 2 0 4 5 4 10 0 6 -5 10 -11 10 -5 0
-7 -4 -4 -10z"/>
<path d="M7682 7178 c3 -7 13 -15 24 -17 16 -3 17 -1 5 13 -16 19 -34 21 -29
4z"/>
<path d="M8266 7165 c4 -8 7 -15 9 -15 2 0 5 7 9 15 3 9 0 15 -9 15 -9 0 -12
-6 -9 -15z"/>
<path d="M7740 7160 c20 -13 43 -13 35 0 -3 6 -16 10 -28 10 -18 0 -19 -2 -7
-10z"/>
<path d="M7670 7141 c0 -10 7 -22 16 -25 12 -5 15 -2 10 10 -3 8 -6 20 -6 25
0 5 -4 9 -10 9 -5 0 -10 -9 -10 -19z"/>
<path d="M8368 7153 c7 -3 16 -2 19 1 4 3 -2 6 -13 5 -11 0 -14 -3 -6 -6z"/>
<path d="M7720 7139 c0 -5 5 -7 10 -4 6 3 10 8 10 11 0 2 -4 4 -10 4 -5 0 -10
-5 -10 -11z"/>
<path d="M8418 7143 c7 -3 16 -2 19 1 4 3 -2 6 -13 5 -11 0 -14 -3 -6 -6z"/>
<path d="M7760 7100 c0 -5 5 -10 11 -10 5 0 7 5 4 10 -3 6 -8 10 -11 10 -2 0
-4 -4 -4 -10z"/>
<path d="M7870 7080 c0 -5 5 -10 11 -10 5 0 7 5 4 10 -3 6 -8 10 -11 10 -2 0
-4 -4 -4 -10z"/>
<path d="M7985 7080 c3 -5 8 -10 11 -10 2 0 4 5 4 10 0 6 -5 10 -11 10 -5 0
-7 -4 -4 -10z"/>
<path d="M8848 7053 c6 -2 18 -2 25 0 6 3 1 5 -13 5 -14 0 -19 -2 -12 -5z"/>
<path d="M8125 7031 c-6 -11 13 -26 22 -17 4 3 1 6 -6 6 -7 0 -9 5 -6 10 3 6
4 10 1 10 -3 0 -7 -4 -11 -9z"/>
<path d="M8350 7020 c19 -13 30 -13 30 0 0 6 -10 10 -22 10 -19 0 -20 -2 -8
-10z"/>
<path d="M8402 7023 c-21 -8 -3 -23 29 -23 17 0 38 -4 47 -9 27 -14 82 -21 82
-11 0 11 -64 30 -102 30 -16 0 -28 5 -28 10 0 11 -7 12 -28 3z"/>
<path d="M8980 7026 c0 -2 11 -6 25 -8 14 -3 25 -1 25 3 0 5 -11 9 -25 9 -14
0 -25 -2 -25 -4z"/>
<path d="M8181 7011 c-9 -6 -10 -11 -2 -15 6 -4 11 -2 11 4 0 7 9 5 22 -4 25
-18 38 -20 38 -8 0 5 -11 14 -25 20 -30 14 -27 14 -44 3z"/>
<path d="M9165 6986 c17 -7 34 -11 40 -8 5 4 -1 9 -15 13 -42 12 -57 9 -25 -5z"/>
<path d="M8390 6970 c-12 -8 -11 -10 8 -10 12 0 22 5 22 10 0 13 -11 13 -30 0z"/>
<path d="M8610 6963 c25 -8 61 -19 80 -23 45 -10 138 -30 170 -36 14 -3 39 -9
55 -14 17 -5 46 -12 65 -14 47 -7 124 -28 130 -36 3 -3 19 -3 35 0 27 6 24 8
-30 20 -33 7 -64 14 -70 16 -51 10 -154 37 -170 44 -11 5 -36 11 -55 13 -19 3
-64 12 -100 20 -36 8 -85 17 -110 20 l-45 6 45 -16z"/>
<path d="M9238 6973 c7 -3 16 -2 19 1 4 3 -2 6 -13 5 -11 0 -14 -3 -6 -6z"/>
<path d="M9360 6950 c8 -5 22 -9 30 -9 10 0 8 3 -5 9 -27 12 -43 12 -25 0z"/>
<path d="M9468 6923 c6 -2 18 -2 25 0 6 3 1 5 -13 5 -14 0 -19 -2 -12 -5z"/>
<path d="M9277 6913 c-4 -3 -7 -11 -7 -17 0 -6 5 -5 12 2 6 6 9 14 7 17 -3 3
-9 2 -12 -2z"/>
<path d="M9528 6913 c7 -3 16 -2 19 1 4 3 -2 6 -13 5 -11 0 -14 -3 -6 -6z"/>
<path d="M9580 6901 c36 -11 119 -22 95 -12 -11 5 -42 11 -70 14 -31 4 -40 3
-25 -2z"/>
<path d="M9547 6889 c7 -7 15 -10 18 -7 3 3 -2 9 -12 12 -14 6 -15 5 -6 -5z"/>
<path d="M9708 6873 c6 -2 18 -2 25 0 6 3 1 5 -13 5 -14 0 -19 -2 -12 -5z"/>
<path d="M9790 6860 c8 -5 24 -10 34 -10 26 0 18 6 -19 14 -22 5 -26 4 -15 -4z"/>
<path d="M9030 6841 c0 -6 4 -13 10 -16 6 -3 7 1 4 9 -7 18 -14 21 -14 7z"/>
<path d="M9880 6840 c14 -4 36 -8 50 -8 22 0 22 1 -5 8 -16 4 -39 8 -50 8 -16
0 -15 -2 5 -8z"/>
<path d="M9190 6830 c20 -13 43 -13 35 0 -3 6 -16 10 -28 10 -18 0 -19 -2 -7
-10z"/>
<path d="M9245 6822 c6 -6 24 -13 42 -15 17 -3 37 -8 42 -12 6 -3 11 -2 11 4
0 5 -15 12 -32 16 -18 4 -42 9 -53 12 -14 4 -17 2 -10 -5z"/>
<path d="M9975 6820 c3 -5 8 -10 11 -10 2 0 4 5 4 10 0 6 -5 10 -11 10 -5 0
-7 -4 -4 -10z"/>
<path d="M10008 6813 c6 -2 18 -2 25 0 6 3 1 5 -13 5 -14 0 -19 -2 -12 -5z"/>
<path d="M9359 6796 c7 -9 28 -16 47 -16 34 0 53 -14 32 -24 -7 -3 -3 -3 9 0
47 11 181 -26 170 -47 -1 -3 4 2 11 10 10 13 12 11 12 -7 0 -13 7 -25 15 -29
25 -9 32 7 11 23 -21 15 -15 17 21 8 13 -4 20 -11 16 -20 -3 -8 0 -14 6 -14 7
0 11 -7 9 -16 -2 -10 3 -19 10 -22 9 -2 12 3 10 14 -2 11 2 18 10 17 6 -2 12
4 12 12 0 11 7 14 23 10 13 -4 31 -7 40 -9 9 -1 20 -5 23 -9 4 -4 17 -7 30 -7
12 0 69 -11 126 -25 57 -14 119 -27 138 -29 19 -3 35 -5 35 -6 0 -2 35 -10 61
-15 11 -1 29 -8 40 -13 10 -6 53 -16 94 -22 41 -7 80 -16 85 -20 6 -4 35 -10
65 -13 35 -4 60 -13 68 -24 11 -15 12 -15 12 5 0 16 -8 23 -27 28 -16 3 -38
10 -51 15 -13 5 -27 7 -32 4 -5 -3 -21 0 -37 6 -15 6 -37 13 -48 15 -65 13
-214 47 -235 54 -14 4 -52 13 -85 20 -33 7 -67 15 -75 17 -17 6 -36 10 -93 17
-21 2 -43 9 -50 14 -7 5 -19 10 -27 10 -46 4 -91 12 -140 25 -30 9 -75 18
-100 22 -43 6 -192 39 -235 52 -17 5 -18 4 -6 -11z m381 -101 c0 -8 -4 -15
-10 -15 -5 0 -10 7 -10 15 0 8 5 15 10 15 6 0 10 -7 10 -15z"/>
<path d="M10095 6796 c17 -8 32 -12 34 -10 7 7 -3 12 -34 18 l-30 6 30 -14z"/>
<path d="M10168 6783 c7 -3 16 -2 19 1 4 3 -2 6 -13 5 -11 0 -14 -3 -6 -6z"/>
<path d="M9770 6754 c0 -8 5 -12 10 -9 6 4 8 11 5 16 -9 14 -15 11 -15 -7z"/>
<path d="M9990 6759 c0 -5 5 -7 10 -4 6 3 10 8 10 11 0 2 -4 4 -10 4 -5 0 -10
-5 -10 -11z"/>
<path d="M10121 6753 c-1 -12 -7 -24 -13 -26 -10 -4 -10 -6 0 -6 15 -1 26 23
19 41 -3 7 -6 3 -6 -9z"/>
<path d="M9398 6753 c7 -3 16 -2 19 1 4 3 -2 6 -13 5 -11 0 -14 -3 -6 -6z"/>
<path d="M10315 6751 c11 -5 40 -11 65 -15 30 -4 36 -3 20 3 -37 12 -109 22
-85 12z"/>
<path d="M9465 6740 c3 -5 18 -10 32 -10 32 0 28 5 -10 14 -19 4 -26 3 -22 -4z"/>
<path d="M9543 6718 c0 -8 12 -13 28 -13 30 0 27 9 -7 19 -13 4 -21 2 -21 -6z"/>
<path d="M9440 6710 c0 -5 5 -10 11 -10 5 0 7 5 4 10 -3 6 -8 10 -11 10 -2 0
-4 -4 -4 -10z"/>
<path d="M9905 6710 c3 -5 8 -10 11 -10 2 0 4 5 4 10 0 6 -5 10 -11 10 -5 0
-7 -4 -4 -10z"/>
<path d="M10028 6713 c7 -3 16 -2 19 1 4 3 -2 6 -13 5 -11 0 -14 -3 -6 -6z"/>
<path d="M9398 6703 c7 -3 16 -2 19 1 4 3 -2 6 -13 5 -11 0 -14 -3 -6 -6z"/>
<path d="M9540 6681 c0 -5 5 -13 10 -16 6 -3 10 -2 10 4 0 5 -4 13 -10 16 -5
3 -10 2 -10 -4z"/>
<path d="M10030 6680 c0 -5 5 -10 10 -10 6 0 10 5 10 10 0 6 -4 10 -10 10 -5
0 -10 -4 -10 -10z"/>
<path d="M9630 6660 c0 -5 3 -10 8 -11 4 0 14 -2 23 -4 21 -4 46 11 36 22 -5
4 -12 1 -16 -6 -6 -9 -11 -10 -15 -2 -9 14 -36 15 -36 1z"/>
<path d="M9800 6645 c0 -8 -4 -15 -10 -15 -5 0 -10 -5 -10 -10 0 -6 8 -5 20 2
21 13 27 38 10 38 -5 0 -10 -7 -10 -15z"/>
<path d="M9833 6646 c0 -8 8 -14 18 -13 14 1 15 4 7 14 -14 17 -25 16 -25 -1z"/>
<path d="M9893 6643 c4 -3 -1 -12 -10 -19 -15 -11 -14 -11 9 -7 18 3 25 10 21
19 -3 8 -10 14 -16 14 -6 0 -7 -3 -4 -7z"/>
<path d="M9930 6641 c0 -5 5 -11 11 -13 5 -2 7 -11 3 -21 -4 -13 -13 -16 -28
-11 -11 4 -18 4 -15 0 4 -4 21 -11 38 -16 28 -8 31 -7 21 5 -10 12 -8 17 11
24 16 6 18 10 8 10 -9 1 -19 8 -23 16 -6 16 -26 21 -26 6z"/>
<path d="M9995 6599 c0 -20 4 -41 9 -46 5 -5 6 -3 2 5 -4 7 -1 12 9 12 12 0
15 6 10 20 -5 15 -3 18 9 14 9 -3 16 -2 16 4 0 6 -12 14 -27 20 -27 9 -28 8
-28 -29z"/>
<path d="M9815 6610 c-3 -6 1 -7 9 -4 18 7 21 14 7 14 -6 0 -13 -4 -16 -10z"/>
<path d="M10087 6596 c-4 -9 -14 -12 -28 -9 -15 4 -20 2 -17 -7 4 -14 49 -35
47 -22 -3 21 3 32 17 32 8 0 12 5 9 10 -9 14 -22 12 -28 -4z"/>
<path d="M11028 6603 c7 -3 16 -2 19 1 4 3 -2 6 -13 5 -11 0 -14 -3 -6 -6z"/>
<path d="M10150 6585 c0 -8 7 -15 16 -15 14 0 14 3 4 15 -7 8 -14 15 -16 15
-2 0 -4 -7 -4 -15z"/>
<path d="M10113 6566 c3 -7 0 -19 -6 -25 -6 -6 -8 -11 -3 -11 11 0 36 27 36
39 0 6 -7 11 -16 11 -10 0 -14 -6 -11 -14z"/>
<path d="M10220 6576 c0 -2 7 -9 15 -16 13 -11 14 -10 9 4 -5 14 -24 23 -24
12z"/>
<path d="M10040 6550 c8 -5 20 -10 25 -10 6 0 3 5 -5 10 -8 5 -19 10 -25 10
-5 0 -3 -5 5 -10z"/>
<path d="M10197 6547 c-3 -8 -1 -20 4 -28 6 -10 9 -7 9 14 0 29 -5 35 -13 14z"/>
<path d="M10273 6541 c-13 -11 -23 -24 -23 -29 0 -11 30 -25 38 -17 3 3 0 5
-6 5 -7 0 -12 5 -12 11 0 7 10 9 28 5 16 -4 22 -3 14 2 -7 5 -10 16 -6 25 8
22 -5 21 -33 -2z"/>
<path d="M10151 6541 c-9 -6 -10 -11 -2 -15 6 -4 11 -2 11 4 0 6 5 8 10 5 6
-3 10 -1 10 4 0 13 -10 14 -29 2z"/>
<path d="M10378 6543 c7 -3 16 -2 19 1 4 3 -2 6 -13 5 -11 0 -14 -3 -6 -6z"/>
<path d="M10415 6530 c3 -5 8 -10 11 -10 2 0 4 5 4 10 0 6 -5 10 -11 10 -5 0
-7 -4 -4 -10z"/>
<path d="M10355 6520 c4 -6 11 -8 16 -5 14 9 11 15 -7 15 -8 0 -12 -5 -9 -10z"/>
<path d="M10610 6513 c0 -5 6 -10 13 -11 84 -9 110 -16 114 -33 3 -11 10 -19
15 -19 5 0 6 5 3 10 -4 6 5 10 20 10 14 0 28 -7 31 -15 9 -22 24 -18 24 5 0
12 -8 21 -22 24 -13 2 -45 9 -73 16 -77 18 -125 23 -125 13z"/>
<path d="M10450 6499 c0 -5 5 -7 10 -4 6 3 10 8 10 11 0 2 -4 4 -10 4 -5 0
-10 -5 -10 -11z"/>
<path d="M10497 6503 c-4 -3 -7 -11 -7 -17 0 -6 5 -5 12 2 6 6 9 14 7 17 -3 3
-9 2 -12 -2z"/>
<path d="M10550 6490 c24 -24 29 -25 26 -3 -2 9 -12 18 -24 20 -22 3 -22 3 -2
-17z"/>
<path d="M11518 6503 c7 -3 16 -2 19 1 4 3 -2 6 -13 5 -11 0 -14 -3 -6 -6z"/>
<path d="M10348 6493 c6 -2 18 -2 25 0 6 3 1 5 -13 5 -14 0 -19 -2 -12 -5z"/>
<path d="M10380 6480 c-13 -8 -12 -10 3 -10 9 0 17 5 17 10 0 12 -1 12 -20 0z"/>
<path d="M10628 6473 c7 -3 16 -2 19 1 4 3 -2 6 -13 5 -11 0 -14 -3 -6 -6z"/>
<path d="M10845 6460 c3 -5 10 -10 16 -10 5 0 9 5 9 10 0 6 -7 10 -16 10 -8 0
-12 -4 -9 -10z"/>
<path d="M11708 6463 c6 -2 18 -2 25 0 6 3 1 5 -13 5 -14 0 -19 -2 -12 -5z"/>
<path d="M10496 6445 c4 -8 10 -15 15 -15 4 0 6 7 3 15 -4 8 -10 15 -15 15 -4
0 -6 -7 -3 -15z"/>
<path d="M10556 6451 c-4 -7 -5 -15 -2 -18 9 -9 19 4 14 18 -4 11 -6 11 -12 0z"/>
<path d="M10916 6439 c3 -6 16 -9 29 -7 30 6 56 -14 44 -33 -5 -8 -9 -9 -9 -3
0 6 -7 11 -16 11 -14 0 -14 -2 2 -14 23 -17 34 -17 34 1 0 16 30 31 39 19 3
-4 15 -8 26 -9 11 0 30 -4 43 -8 12 -4 22 -3 22 2 0 10 -34 22 -81 28 -14 2
-38 8 -53 14 -37 14 -89 13 -80 -1z"/>
<path d="M11798 6443 c6 -2 18 -2 25 0 6 3 1 5 -13 5 -14 0 -19 -2 -12 -5z"/>
<path d="M10662 6429 c-50 -10 -49 -17 1 -12 30 4 54 0 76 -12 24 -12 36 -14
44 -6 6 6 7 14 3 18 -4 4 -11 1 -16 -7 -7 -11 -10 -12 -10 -2 0 7 -4 11 -9 8
-5 -4 -11 -1 -13 6 -5 14 -31 16 -76 7z"/>
<path d="M10796 6405 c-9 -26 -7 -32 5 -12 6 10 9 21 6 23 -2 3 -7 -2 -11 -11z"/>
<path d="M10700 6400 c-13 -8 -12 -10 3 -10 9 0 17 5 17 10 0 12 -1 12 -20 0z"/>
<path d="M11555 6400 c3 -5 8 -10 11 -10 2 0 4 5 4 10 0 6 -5 10 -11 10 -5 0
-7 -4 -4 -10z"/>
<path d="M11707 6398 c-2 -7 -1 -22 3 -33 6 -16 8 -13 7 13 0 35 -2 39 -10 20z"/>
<path d="M11017 6383 c-11 -10 -8 -20 6 -26 8 -3 13 3 13 14 0 19 -8 24 -19
12z"/>
<path d="M11071 6374 c0 -11 3 -14 6 -6 3 7 2 16 -1 19 -3 4 -6 -2 -5 -13z"/>
<path d="M11140 6350 c0 -16 6 -20 33 -19 29 0 30 1 10 9 -13 5 -23 14 -23 20
0 5 -4 10 -10 10 -5 0 -10 -9 -10 -20z"/>
<path d="M11087 6354 c-8 -8 1 -24 14 -24 5 0 9 7 9 15 0 15 -12 20 -23 9z"/>
<path d="M11225 6350 c-3 -5 1 -10 10 -10 9 0 13 5 10 10 -3 6 -8 10 -10 10
-2 0 -7 -4 -10 -10z"/>
<path d="M11750 6350 c0 -5 7 -10 16 -10 8 0 12 5 9 10 -3 6 -10 10 -16 10 -5
0 -9 -4 -9 -10z"/>
<path d="M11026 6323 c-4 -10 -4 -14 0 -10 4 4 13 2 21 -5 20 -16 43 7 24 25
-11 10 -13 9 -7 -6 4 -13 2 -17 -6 -14 -7 2 -12 10 -10 16 4 18 -15 13 -22 -6z"/>
<path d="M11670 6330 c-8 -5 -12 -12 -9 -15 4 -3 12 1 19 10 14 17 11 19 -10
5z"/>
<path d="M11746 6314 c-4 -9 -4 -19 -1 -22 2 -3 7 3 11 12 4 9 4 19 1 22 -2 3
-7 -3 -11 -12z"/>
<path d="M11117 6304 c-4 -4 -4 -10 -1 -15 6 -10 34 0 34 12 0 10 -24 12 -33
3z"/>
<path d="M11176 6295 c7 -18 20 -19 30 -3 4 7 3 8 -4 4 -7 -4 -12 -2 -12 3 0
6 -4 11 -10 11 -5 0 -7 -7 -4 -15z"/>
</g>
</svg>
